<svg version="1.1" id="Layer_1" xmlns="http://www.w3.org/2000/svg" xmlns:xlink="http://www.w3.org/1999/xlink" x="0px" y="0px"
	 width="100%" viewBox="0 0 512 512" enable-background="new 0 0 512 512" xml:space="preserve">
<path fill="#448EFF" opacity="1.000000" stroke="none" 
	d="
M513.000000,230.000000 
	C513.000000,247.687561 513.000000,265.375122 512.693359,283.245239 
	C511.207947,285.460754 509.783783,287.393402 508.902496,289.548126 
	C507.193665,293.726166 510.008759,295.963074 513.000000,298.000000 
	C513.000000,315.687561 513.000000,333.375122 512.691528,351.243439 
	C511.371948,353.016205 510.372986,354.616058 509.347351,356.198578 
	C507.124725,359.628052 508.696136,363.858307 513.000000,366.000000 
	C513.000000,384.020905 513.000000,402.041779 512.700562,420.248138 
	C508.146454,424.869476 504.243774,429.745941 499.483521,433.549042 
	C497.219299,435.358032 495.712616,436.449829 495.932861,439.504303 
	C496.207520,443.313171 495.642487,447.196503 496.063080,450.978394 
	C497.551208,464.359314 488.008728,471.141022 476.140717,471.060364 
	C448.009613,470.869110 419.876282,470.974731 391.744080,471.053741 
	C389.894928,471.058929 387.927032,471.576721 386.221008,472.326385 
	C378.909302,475.539062 375.217041,480.803894 376.940430,489.138519 
	C377.336548,491.054169 377.078247,493.125305 376.984131,495.118408 
	C376.688354,501.380402 375.273438,507.065430 369.201233,510.464996 
	C368.536194,510.837341 368.387939,512.132751 368.000000,513.000000 
	C294.312439,513.000000 220.624878,513.000000 146.751892,512.710815 
	C142.338654,509.031433 138.103943,505.352142 137.419937,499.741028 
	C136.720306,494.001709 137.128357,488.130463 136.978439,482.318848 
	C136.941193,480.875031 137.067780,478.482574 136.360321,478.152527 
	C131.488373,475.879669 128.355225,470.797760 121.916046,470.866791 
	C93.454933,471.171997 64.988686,470.988190 36.524307,471.004303 
	C25.692194,471.010437 16.901810,463.834198 17.927818,452.648468 
	C18.366907,447.861450 18.148476,442.993134 17.903219,438.178314 
	C17.837160,436.881439 16.803675,435.427887 15.828634,434.418945 
	C11.589803,430.032959 7.226367,425.766266 2.849384,421.516846 
	C2.445954,421.125153 1.626361,421.162079 1.000000,421.000000 
	C1.000000,402.979095 1.000000,384.958221 1.297528,366.753174 
	C3.286333,364.214783 4.977609,361.860535 6.870388,359.225830 
	C4.998890,356.922211 2.999441,354.461121 0.999996,352.000000 
	C1.000000,334.312439 1.000000,316.624878 1.304747,298.754700 
	C2.630869,296.994141 3.671366,295.428162 4.669489,293.835632 
	C6.532851,290.862671 4.606120,285.723755 1.000000,284.000000 
	C1.000000,266.312439 1.000000,248.624878 1.308625,230.756561 
	C7.877619,217.596436 18.438545,213.501816 32.432678,213.819489 
	C59.728233,214.439133 87.047791,214.001221 114.357414,214.001221 
	C116.152206,214.001221 117.946999,214.001205 119.699730,214.001205 
	C120.987366,197.751556 132.794724,187.944153 148.217331,187.962524 
	C220.154770,188.048233 292.092865,188.142990 364.029541,187.891830 
	C380.294250,187.835052 392.428650,196.460480 394.511749,214.001205 
	C396.272400,214.001205 398.078796,214.001236 399.885193,214.001236 
	C429.359589,214.001221 458.834717,213.887146 488.308014,214.066040 
	C497.989899,214.124817 505.451355,218.513275 510.108521,227.291153 
	C510.694092,228.394791 512.018127,229.106628 513.000000,230.000000 
M52.942204,453.066803 
	C69.628036,453.044525 86.313866,453.022278 103.935684,453.027496 
	C120.734306,452.997833 120.657860,453.001038 120.105232,439.773346 
	C119.990288,437.022034 119.183601,435.876770 116.353279,435.995026 
	C111.878349,436.181915 107.393105,436.121826 101.988853,436.096069 
	C85.277054,436.134949 68.565254,436.173828 50.942459,436.124817 
	C45.715950,436.124817 40.489437,436.124817 35.375084,436.124817 
	C35.375084,442.223969 35.375084,447.469238 35.375084,453.006012 
	C41.126827,453.006012 46.567089,453.006012 52.942204,453.066803 
M462.911865,453.005127 
	C479.649994,453.102020 479.576050,453.104980 479.041595,439.779083 
	C478.932220,437.052185 478.177582,435.862457 475.321808,435.991180 
	C470.852753,436.192596 466.372223,436.140045 460.976837,436.105774 
	C438.747986,436.105774 416.519135,436.105774 394.273163,436.105774 
	C394.273163,442.122986 394.273163,447.348633 394.273163,452.954773 
	C417.102325,452.954773 439.536774,452.954773 462.911865,453.005127 
M342.889648,495.974274 
	C347.039642,495.979248 351.198517,495.815186 355.337280,496.033234 
	C360.209473,496.289886 359.535614,492.624207 358.877533,490.319855 
	C357.798553,486.541931 362.773865,480.429932 355.394012,479.139954 
	C351.047699,478.380188 346.455414,479.027466 341.040833,478.992584 
	C279.140656,478.992584 217.240494,478.992584 155.266434,478.992584 
	C155.266434,485.012085 155.266434,490.241180 155.266434,495.906403 
	C217.740189,495.906403 279.842773,495.906403 342.889648,495.974274 
M37.910660,419.023590 
	C59.927425,418.966064 81.944191,418.908539 104.891556,418.999268 
	C108.870743,419.014343 112.869888,419.259949 116.818184,418.918243 
	C118.183403,418.800079 120.081589,417.499542 120.602173,416.261993 
	C122.613487,411.480713 124.166801,406.506775 126.124649,400.939514 
	C117.899483,392.064117 121.055565,379.665497 119.871193,368.113190 
	C113.868935,368.113190 108.419571,368.113190 102.042076,368.006226 
	C80.353317,368.050293 58.664558,368.094330 36.062317,368.002472 
	C33.077724,367.993835 30.090137,367.896027 27.109192,367.996063 
	C21.750706,368.175934 18.193562,371.347198 18.109129,376.585144 
	C17.927418,387.857880 17.928501,399.137482 18.106529,410.410309 
	C18.190758,415.743683 21.614361,418.861267 27.042194,419.028381 
	C30.349949,419.130249 33.666550,418.944824 37.910660,419.023590 
M36.905674,350.904236 
	C58.921062,350.861389 80.936447,350.818512 103.885635,350.913025 
	C108.366371,350.921600 112.858734,351.109436 117.320168,350.820099 
	C118.523338,350.742096 120.233955,349.452118 120.680496,348.313904 
	C122.575546,343.483521 124.082718,338.500977 126.039413,332.654205 
	C117.917709,324.045959 120.985229,311.653992 119.912056,299.974548 
	C113.907669,299.974548 108.457787,299.974548 102.075394,299.857391 
	C80.384224,299.902313 58.693062,299.947266 36.082172,299.840363 
	C33.756493,299.826233 31.430702,299.790039 29.105156,299.801880 
	C20.826809,299.844147 18.064342,302.585419 18.039698,310.828064 
	C18.016352,318.636414 18.327854,326.458252 17.972916,334.250488 
	C17.257839,349.949127 20.982943,352.055176 36.905674,350.904236 
M37.834423,282.657898 
	C48.428440,282.693420 59.022732,282.793060 69.616394,282.747009 
	C81.026154,282.697418 92.435326,282.511322 104.760201,282.704834 
	C108.744499,282.751495 112.731293,282.728271 116.712212,282.869904 
	C119.262268,282.960632 120.387131,282.162567 121.035637,279.399780 
	C121.962135,275.452667 123.998802,271.779022 125.261971,267.891327 
	C125.729637,266.451935 125.978348,264.321838 125.249168,263.219940 
	C122.001167,258.311676 120.539406,253.064301 120.749550,247.217636 
	C120.898605,243.070526 121.047318,238.884079 120.608551,234.777985 
	C120.468628,233.468491 118.502449,231.406357 117.269173,231.329132 
	C112.490578,231.029922 107.670578,231.391968 101.967926,231.317749 
	C92.694794,231.290359 83.421349,231.202667 74.148605,231.250397 
	C61.741753,231.314270 49.335438,231.483078 36.055386,231.353546 
	C33.733025,231.324814 31.409548,231.235580 29.088499,231.278275 
	C20.955944,231.427887 18.061962,234.373581 18.039583,242.513412 
	C18.018141,250.313019 18.357855,258.128937 17.967884,265.909027 
	C17.135725,282.511017 21.596958,283.392303 36.447701,282.527588 
	C36.609241,282.518188 36.766762,282.439819 37.834423,282.657898 
M476.041534,368.013672 
	C448.793243,368.013672 421.544952,368.013672 393.948730,368.013672 
	C393.037750,380.043610 396.046997,392.414520 387.756714,401.110382 
	C390.263580,407.553467 392.397858,413.039001 394.673889,418.888794 
	C421.765991,418.888794 449.369385,418.888794 477.895935,419.009796 
	C481.044189,419.016296 484.199249,419.157257 487.339142,418.998352 
	C492.277130,418.748474 495.823547,415.406006 495.901794,410.446381 
	C496.079498,399.180969 496.082031,387.908813 495.902954,376.643463 
	C495.820709,371.468170 492.183655,368.177917 486.900940,368.018951 
	C483.593903,367.919403 480.278778,368.089325 476.041534,368.013672 
M477.866089,350.886932 
	C481.019928,350.900085 484.182617,351.069336 487.325531,350.890625 
	C492.301544,350.607697 495.824036,347.252960 495.900787,342.287964 
	C496.075256,331.001709 496.103333,319.708160 495.893402,308.423126 
	C495.790436,302.888947 492.529877,300.022858 486.948608,299.894257 
	C483.633789,299.817871 480.313782,299.966492 476.067505,299.875885 
	C448.716919,299.875885 421.366333,299.875885 393.863678,299.875885 
	C393.242371,312.153290 395.820953,324.242706 387.742004,332.969849 
	C390.322327,339.462769 392.547729,345.062622 394.800690,350.731873 
	C422.090973,350.731873 449.517120,350.731873 477.866089,350.886932 
M475.987549,231.344498 
	C448.746521,231.344498 421.505524,231.344498 393.884705,231.344498 
	C393.258575,243.661423 395.777252,255.788773 387.674011,264.790253 
	C389.631165,269.546295 392.182953,273.537506 392.777191,277.801575 
	C393.394135,282.228455 395.440887,282.802368 398.979553,282.788757 
	C414.299255,282.729980 429.619476,282.805420 444.939178,282.750763 
	C455.586151,282.712769 466.232666,282.542542 477.783600,282.719971 
	C480.106567,282.761963 482.430084,282.857910 484.752441,282.836182 
	C492.785950,282.761047 495.964355,279.619110 495.989594,271.718262 
	C496.015045,263.747742 495.606323,255.754120 496.074371,247.811050 
	C497.150513,229.547348 489.886078,230.902542 477.831543,231.288284 
	C477.511536,231.298523 477.196747,231.471817 475.987549,231.344498 
M358.871185,256.942352 
	C361.856934,256.957184 364.848114,257.092957 367.827240,256.959717 
	C372.855835,256.734894 376.041351,253.835327 376.114014,248.896271 
	C376.284882,237.286423 376.282104,225.670883 376.123505,214.060745 
	C376.055237,209.062607 372.950806,206.165939 367.905090,205.977539 
	C364.598694,205.854111 361.279785,206.067047 357.043457,205.980743 
	C287.114136,205.956711 217.184799,205.920410 147.255478,205.928925 
	C140.743820,205.929718 137.817535,208.873627 137.754517,215.401703 
	C137.659698,225.224289 137.718857,235.048462 137.727234,244.871948 
	C137.735611,254.708267 139.988495,256.995422 149.670303,256.995789 
	C217.269272,256.998352 284.868256,256.998810 352.467224,256.988403 
	C354.294586,256.988129 356.121918,256.857483 358.871185,256.942352 
M358.823425,461.831116 
	C361.810516,461.853363 364.810577,462.062683 367.781769,461.856201 
	C372.884521,461.501587 376.052887,458.558716 376.116455,453.731842 
	C376.271667,441.948334 376.266754,430.159821 376.100342,418.376526 
	C376.037262,413.908264 372.979034,411.087463 368.440704,410.902161 
	C364.966644,410.760284 361.478546,410.961884 357.069733,410.856995 
	C287.138275,410.829956 217.206848,410.790009 147.275406,410.796844 
	C140.606750,410.797516 137.816605,413.579041 137.754166,420.168701 
	C137.661118,429.991669 137.718933,439.816101 137.726990,449.639923 
	C137.735107,459.556976 140.105896,461.897797 150.137924,461.898132 
	C217.406097,461.900330 284.674286,461.901825 351.942444,461.887054 
	C353.932648,461.886597 355.922821,461.703979 358.823425,461.831116 
M357.022095,274.105011 
	C287.256775,274.081085 217.491470,274.044434 147.726166,274.052734 
	C140.690018,274.053589 137.791534,277.044098 137.743561,284.144196 
	C137.678314,293.801086 137.717972,303.458771 137.726074,313.116119 
	C137.734375,323.014740 139.837708,325.131042 149.689819,325.131531 
	C217.291245,325.134918 284.892670,325.135101 352.494110,325.123627 
	C354.320862,325.123322 356.147644,324.980194 358.894196,325.054932 
	C361.548950,325.070282 364.204803,325.140961 366.858276,325.090027 
	C373.339478,324.965668 376.132965,322.161438 376.187347,315.584839 
	C376.254578,307.454254 376.002960,299.316467 376.250854,291.192871 
	C376.722656,275.730072 375.809235,273.001556 357.022095,274.105011 
M356.958252,342.301819 
	C356.127380,342.262939 355.296509,342.190094 354.465637,342.190033 
	C286.030060,342.184174 217.594513,342.183960 149.158951,342.183777 
	C148.492920,342.183777 147.824631,342.155609 147.161224,342.199066 
	C140.693710,342.622681 137.807404,345.522614 137.751511,351.966248 
	C137.667740,361.623108 137.721542,371.281219 137.725586,380.938782 
	C137.729980,391.435913 140.045364,393.715363 150.727463,393.715790 
	C216.998398,393.718506 283.269318,393.724060 349.540253,393.693451 
	C352.359924,393.692139 355.179474,393.343597 358.654785,393.612915 
	C361.298218,393.683655 363.950867,393.929413 366.583252,393.790619 
	C373.084290,393.447815 376.536133,390.353149 376.704102,383.925262 
	C376.981049,373.329224 376.974823,362.715820 376.709045,352.119202 
	C376.541656,345.446869 372.892395,342.216339 366.249847,342.130127 
	C363.452301,342.093842 360.650635,342.375885 356.958252,342.301819 
z"/>
<path fill="#000000" opacity="1.000000" stroke="none" 
	d="
M513.000000,229.531342 
	C512.018127,229.106628 510.694092,228.394791 510.108521,227.291153 
	C505.451355,218.513275 497.989899,214.124817 488.308014,214.066040 
	C458.834717,213.887146 429.359589,214.001221 399.885193,214.001236 
	C398.078796,214.001236 396.272400,214.001205 394.511749,214.001205 
	C392.428650,196.460480 380.294250,187.835052 364.029541,187.891830 
	C292.092865,188.142990 220.154770,188.048233 148.217331,187.962524 
	C132.794724,187.944153 120.987366,197.751556 119.699730,214.001205 
	C117.946999,214.001205 116.152206,214.001221 114.357414,214.001221 
	C87.047791,214.001221 59.728233,214.439133 32.432678,213.819489 
	C18.438545,213.501816 7.877619,217.596436 1.308625,230.287903 
	C1.000000,211.979111 1.000000,193.958206 1.311218,175.180481 
	C2.821987,176.479050 4.093336,178.496292 5.209623,180.595963 
	C13.411144,196.022507 34.678932,202.581589 49.994183,194.371475 
	C65.858444,185.867050 81.273476,176.525574 96.899178,167.574966 
	C113.229828,158.220551 129.610275,148.952621 145.908783,139.542679 
	C164.310211,128.918610 182.639542,118.169670 201.009705,107.491364 
	C217.698563,97.790375 234.418640,88.142937 251.081985,78.398392 
	C254.852859,76.193230 258.210175,75.538643 262.373962,78.001068 
	C283.466949,90.475159 304.704895,102.704567 325.915344,114.979424 
	C339.674164,122.941895 353.488800,130.807816 367.249390,138.767242 
	C381.154755,146.810440 395.009827,154.940598 408.913483,162.986740 
	C423.513489,171.435883 438.217163,179.708466 452.735413,188.295181 
	C461.345551,193.387573 469.967194,198.751312 480.355316,197.877075 
	C494.470886,196.689148 505.115479,189.827774 511.048676,176.501099 
	C511.342194,175.841827 512.333557,175.493256 513.000000,175.000015 
	C513.000000,193.020889 513.000000,211.041794 513.000000,229.531342 
z"/>
<path fill="#438DFF" opacity="1.000000" stroke="none" 
	d="
M513.000000,174.531387 
	C512.333557,175.493256 511.342194,175.841827 511.048676,176.501099 
	C505.115479,189.827774 494.470886,196.689148 480.355316,197.877075 
	C469.967194,198.751312 461.345551,193.387573 452.735413,188.295181 
	C438.217163,179.708466 423.513489,171.435883 408.913483,162.986740 
	C395.009827,154.940598 381.154755,146.810440 367.249390,138.767242 
	C353.488800,130.807816 339.674164,122.941895 325.915344,114.979424 
	C304.704895,102.704567 283.466949,90.475159 262.373962,78.001068 
	C258.210175,75.538643 254.852859,76.193230 251.081985,78.398392 
	C234.418640,88.142937 217.698563,97.790375 201.009705,107.491364 
	C182.639542,118.169670 164.310211,128.918610 145.908783,139.542679 
	C129.610275,148.952621 113.229828,158.220551 96.899178,167.574966 
	C81.273476,176.525574 65.858444,185.867050 49.994183,194.371475 
	C34.678932,202.581589 13.411144,196.022507 5.209623,180.595963 
	C4.093336,178.496292 2.821987,176.479050 1.311218,174.711823 
	C1.000000,167.312424 1.000000,159.624832 1.304844,151.753784 
	C2.817264,149.512039 3.667647,147.096146 5.301280,145.464447 
	C9.705444,141.065506 14.443451,137.000793 19.475208,132.795792 
	C24.617018,132.214722 28.566053,133.189133 30.303465,138.225586 
	C32.028683,143.226700 29.534517,146.454788 25.569351,149.003906 
	C25.152782,149.271729 24.773409,149.600967 24.393183,149.921188 
	C17.924215,155.369431 16.194969,163.700134 20.011566,171.012512 
	C23.895369,178.453644 31.776680,181.627884 40.581482,179.102600 
	C57.401733,169.666931 73.906906,160.344162 90.338142,150.892838 
	C143.821945,120.128746 197.299347,89.353340 250.707855,58.458942 
	C255.116730,55.908604 258.788574,55.818607 263.201141,58.385860 
	C292.094452,75.196091 321.094727,91.822464 350.050537,108.525398 
	C384.046051,128.135468 418.004944,147.809219 452.043732,167.343887 
	C459.217987,171.461151 466.669739,175.094955 474.273499,179.245239 
	C484.491547,181.016983 492.059326,176.953857 494.987396,168.567963 
	C497.809753,160.484848 494.552673,152.431686 486.575775,147.832306 
	C466.718384,136.382797 446.861084,124.933136 426.993683,113.501015 
	C402.086761,99.169037 377.145935,84.895790 352.263397,70.521660 
	C323.644623,53.989170 295.090302,37.345039 266.444183,20.860220 
	C264.531403,19.759476 262.079956,19.594791 259.646423,18.688177 
	C255.302551,19.289267 250.650543,19.251163 247.161163,21.246361 
	C194.463699,51.378235 141.911392,81.764091 89.352768,112.138359 
	C85.173424,114.553642 81.034615,116.892929 76.446663,113.514236 
	C72.054947,110.280060 72.749672,105.831871 74.164589,101.365112 
	C74.200455,101.251877 74.027962,101.072639 73.973793,100.958313 
	C73.994949,100.992447 73.924782,100.953369 74.249847,101.110321 
	C74.852432,100.885757 75.129951,100.504234 75.645462,99.884293 
	C86.228287,93.616348 96.541138,87.531113 106.924957,81.569489 
	C125.480232,70.916412 144.094879,60.366798 162.654526,49.721321 
	C189.364365,34.401031 216.053421,19.044468 242.716202,3.642534 
	C243.668518,3.092423 244.247192,1.895476 245.000000,1.000000 
	C252.687576,1.000000 260.375153,1.000000 268.250153,1.307363 
	C275.441864,5.681792 282.426788,9.782755 289.454407,13.809072 
	C305.643005,23.083921 321.885773,32.264595 338.043884,41.592075 
	C354.200348,50.918621 370.245880,60.437412 386.404022,69.761063 
	C402.564850,79.086266 418.827911,88.234070 435.003693,97.533516 
	C451.600739,107.075142 468.150940,116.698265 484.712769,126.301064 
	C495.290588,132.434235 506.658997,137.707581 511.179230,150.503204 
	C511.298584,150.841049 512.371643,150.841965 513.000000,151.000000 
	C513.000000,158.687576 513.000000,166.375168 513.000000,174.531387 
z"/>
<path fill="#000000" opacity="1.000000" stroke="none" 
	d="
M513.000000,150.531342 
	C512.371643,150.841965 511.298584,150.841049 511.179230,150.503204 
	C506.658997,137.707581 495.290588,132.434235 484.712769,126.301064 
	C468.150940,116.698265 451.600739,107.075142 435.003693,97.533516 
	C418.827911,88.234070 402.564850,79.086266 386.404022,69.761063 
	C370.245880,60.437412 354.200348,50.918621 338.043884,41.592075 
	C321.885773,32.264595 305.643005,23.083921 289.454407,13.809072 
	C282.426788,9.782755 275.441864,5.681792 268.718781,1.307363 
	C350.242950,1.000000 431.485931,1.000000 513.000000,1.000000 
	C513.000000,50.687233 513.000000,100.374954 513.000000,150.531342 
z"/>
<path fill="#000000" opacity="1.000000" stroke="none" 
	d="
M244.531342,1.000000 
	C244.247192,1.895476 243.668518,3.092423 242.716202,3.642534 
	C216.053421,19.044468 189.364365,34.401031 162.654526,49.721321 
	C144.094879,60.366798 125.480232,70.916412 106.924957,81.569489 
	C96.541138,87.531113 86.228287,93.616348 75.312523,99.844574 
	C74.469322,100.346626 74.197052,100.650002 73.924782,100.953369 
	C73.924782,100.953369 73.994949,100.992447 73.608200,100.993057 
	C65.375832,105.685936 57.530216,110.378204 49.362915,115.028381 
	C47.693233,115.935783 46.345242,116.885292 44.629341,117.910713 
	C35.857277,122.925568 27.453119,127.864502 19.048962,132.803436 
	C14.443451,137.000793 9.705444,141.065506 5.301280,145.464447 
	C3.667647,147.096146 2.817264,149.512039 1.304844,151.285156 
	C1.000000,101.055565 1.000000,51.111134 1.000000,1.000000 
	C82.020821,1.000000 163.041748,1.000000 244.531342,1.000000 
z"/>
<path fill="#000000" opacity="1.000000" stroke="none" 
	d="
M368.468658,513.000000 
	C368.387939,512.132751 368.536194,510.837341 369.201233,510.464996 
	C375.273438,507.065430 376.688354,501.380402 376.984131,495.118408 
	C377.078247,493.125305 377.336548,491.054169 376.940430,489.138519 
	C375.217041,480.803894 378.909302,475.539062 386.221008,472.326385 
	C387.927032,471.576721 389.894928,471.058929 391.744080,471.053741 
	C419.876282,470.974731 448.009613,470.869110 476.140717,471.060364 
	C488.008728,471.141022 497.551208,464.359314 496.063080,450.978394 
	C495.642487,447.196503 496.207520,443.313171 495.932861,439.504303 
	C495.712616,436.449829 497.219299,435.358032 499.483521,433.549042 
	C504.243774,429.745941 508.146454,424.869476 512.700562,420.716797 
	C513.000000,451.609955 513.000000,482.219940 513.000000,513.000000 
	C464.979248,513.000000 416.958282,513.000000 368.468658,513.000000 
z"/>
<path fill="#000000" opacity="1.000000" stroke="none" 
	d="
M1.000000,421.468658 
	C1.626361,421.162079 2.445954,421.125153 2.849384,421.516846 
	C7.226367,425.766266 11.589803,430.032959 15.828634,434.418945 
	C16.803675,435.427887 17.837160,436.881439 17.903219,438.178314 
	C18.148476,442.993134 18.366907,447.861450 17.927818,452.648468 
	C16.901810,463.834198 25.692194,471.010437 36.524307,471.004303 
	C64.988686,470.988190 93.454933,471.171997 121.916046,470.866791 
	C128.355225,470.797760 131.488373,475.879669 136.360321,478.152527 
	C137.067780,478.482574 136.941193,480.875031 136.978439,482.318848 
	C137.128357,488.130463 136.720306,494.001709 137.419937,499.741028 
	C138.103943,505.352142 142.338654,509.031433 146.283234,512.710815 
	C97.756042,513.000000 49.512085,513.000000 1.000000,513.000000 
	C1.000000,482.646301 1.000000,452.291809 1.000000,421.468658 
z"/>
<path fill="#000000" opacity="1.000000" stroke="none" 
	d="
M513.000000,365.535339 
	C508.696136,363.858307 507.124725,359.628052 509.347351,356.198578 
	C510.372986,354.616058 511.371948,353.016205 512.691528,351.712097 
	C513.000000,356.356903 513.000000,360.713806 513.000000,365.535339 
z"/>
<path fill="#000000" opacity="1.000000" stroke="none" 
	d="
M0.999996,352.464661 
	C2.999441,354.461121 4.998890,356.922211 6.870388,359.225830 
	C4.977609,361.860535 3.286333,364.214783 1.297528,366.284485 
	C1.000000,361.643097 1.000000,357.286194 0.999996,352.464661 
z"/>
<path fill="#000000" opacity="1.000000" stroke="none" 
	d="
M513.000000,297.535339 
	C510.008759,295.963074 507.193665,293.726166 508.902496,289.548126 
	C509.783783,287.393402 511.207947,285.460754 512.693359,283.713867 
	C513.000000,288.356903 513.000000,292.713806 513.000000,297.535339 
z"/>
<path fill="#000000" opacity="1.000000" stroke="none" 
	d="
M1.000000,284.464661 
	C4.606120,285.723755 6.532851,290.862671 4.669489,293.835632 
	C3.671366,295.428162 2.630869,296.994141 1.304747,298.286072 
	C1.000000,293.643097 1.000000,289.286194 1.000000,284.464661 
z"/>
<path fill="#E7EDFC" opacity="1.000000" stroke="none" 
	d="
M357.999084,393.156799 
	C355.179474,393.343597 352.359924,393.692139 349.540253,393.693451 
	C283.269318,393.724060 216.998398,393.718506 150.727463,393.715790 
	C140.045364,393.715363 137.729980,391.435913 137.725586,380.938782 
	C137.721542,371.281219 137.667740,361.623108 137.751511,351.966248 
	C137.807404,345.522614 140.693710,342.622681 147.161224,342.199066 
	C147.824631,342.155609 148.492920,342.183777 149.158951,342.183777 
	C217.594513,342.183960 286.030060,342.184174 354.465637,342.190033 
	C355.296509,342.190094 356.127380,342.262939 357.467102,342.784424 
	C358.213135,350.181732 358.450317,357.096405 358.454041,363.701172 
	C353.064270,358.175812 347.445953,358.034698 343.963654,363.033142 
	C341.438843,366.657196 341.939148,371.341461 345.160187,374.235199 
	C348.860046,377.559265 353.015320,377.140625 358.238831,373.227844 
	C358.373871,380.056030 358.186493,386.606445 357.999084,393.156799 
M163.373978,359.288727 
	C159.175812,359.641846 155.547195,361.545288 155.221497,365.800323 
	C155.002487,368.661407 156.218185,372.614288 158.260666,374.375336 
	C160.103500,375.964294 164.596161,376.409607 166.726608,375.220581 
	C169.100128,373.895935 171.287247,370.232025 171.469620,367.449646 
	C171.753433,363.119659 168.518814,360.331207 163.373978,359.288727 
M323.076477,373.531464 
	C325.781372,370.148529 326.373627,366.138824 323.437653,363.169617 
	C321.445190,361.154633 317.520966,359.463074 314.983185,360.017731 
	C312.415710,360.578918 309.157532,363.824463 308.661438,366.372894 
	C308.166473,368.915771 310.002808,372.859070 312.110413,374.736176 
	C315.136597,377.431366 319.188599,376.944061 323.076477,373.531464 
M252.406418,375.374817 
	C257.534485,371.463715 258.457703,366.471863 254.818863,362.330566 
	C251.536957,358.595490 245.961639,358.371460 242.524796,361.936096 
	C239.691299,364.874969 239.077469,368.314728 241.027649,371.936676 
	C243.389343,376.322906 247.278534,376.874359 252.406418,375.374817 
M283.981506,359.558228 
	C277.661865,359.632233 273.703583,363.204590 274.065613,368.507355 
	C274.410553,373.560059 278.923737,376.964691 284.239624,376.121185 
	C288.198822,375.492950 290.456573,372.906158 290.922363,369.154694 
	C291.504425,364.467407 289.346649,361.195709 283.981506,359.558228 
z"/>
<path fill="#E7EDFC" opacity="1.000000" stroke="none" 
	d="
M357.974396,324.903687 
	C356.147644,324.980194 354.320862,325.123322 352.494110,325.123627 
	C284.892670,325.135101 217.291245,325.134918 149.689819,325.131531 
	C139.837708,325.131042 137.734375,323.014740 137.726074,313.116119 
	C137.717972,303.458771 137.678314,293.801086 137.743561,284.144196 
	C137.791534,277.044098 140.690018,274.053589 147.726166,274.052734 
	C217.491470,274.044434 287.256775,274.081085 357.509766,274.584351 
	C358.242767,281.959198 358.488068,288.854675 358.486450,295.464203 
	C355.676117,291.889282 352.176086,289.738068 348.385620,291.754150 
	C345.830414,293.113190 343.085602,296.219177 342.677795,298.887848 
	C342.310486,301.291107 344.418396,304.819031 346.487305,306.681427 
	C349.998840,309.842468 354.407928,308.357330 358.873016,303.956116 
	C358.609467,311.271698 358.291931,318.087708 357.974396,324.903687 
M245.340958,307.583374 
	C253.487915,308.852203 259.003998,303.616089 256.457184,296.946106 
	C255.019272,293.180298 251.983261,290.392792 248.143478,291.357635 
	C245.214706,292.093567 241.779587,294.619995 240.516052,297.275879 
	C238.670547,301.155090 240.527496,305.013000 245.340958,307.583374 
M156.086517,294.911041 
	C154.016525,299.032898 153.986862,302.981506 157.727844,306.118805 
	C160.824539,308.715759 164.402130,308.945801 167.830505,306.672668 
	C172.031433,303.887299 172.881866,298.434052 169.891098,294.514343 
	C166.540176,290.122650 161.628754,290.028503 156.086517,294.911041 
M286.233887,292.033234 
	C282.653046,290.274780 279.048676,290.731659 276.819061,293.772827 
	C275.252686,295.909424 274.271179,299.220520 274.590698,301.814758 
	C275.040497,305.466766 277.872955,307.817688 281.887451,308.051727 
	C286.003571,308.291779 289.072083,306.556366 290.478149,302.708496 
	C292.026733,298.470642 290.739166,294.919525 286.233887,292.033234 
M314.277039,291.508392 
	C310.133301,293.166626 307.678497,296.153046 308.289795,300.678070 
	C308.817871,304.587219 311.207123,307.326843 315.333801,307.983765 
	C320.383118,308.787537 324.663940,305.431641 325.078339,300.473297 
	C325.566437,294.633270 321.865509,291.243622 314.277039,291.508392 
z"/>
<path fill="#E7EDFC" opacity="1.000000" stroke="none" 
	d="
M357.912994,461.606293 
	C355.922821,461.703979 353.932648,461.886597 351.942444,461.887054 
	C284.674286,461.901825 217.406097,461.900330 150.137924,461.898132 
	C140.105896,461.897797 137.735107,459.556976 137.726990,449.639923 
	C137.718933,439.816101 137.661118,429.991669 137.754166,420.168701 
	C137.816605,413.579041 140.606750,410.797516 147.275406,410.796844 
	C217.206848,410.790009 287.138275,410.829956 357.542816,411.355957 
	C358.297150,418.720764 358.578369,425.586639 358.587952,432.205505 
	C354.138275,427.404938 349.693176,426.510681 345.791199,429.438660 
	C342.125671,432.189209 341.259674,437.080505 343.762329,440.898346 
	C347.294006,446.285980 353.480347,445.976349 358.770691,440.666870 
	C358.540100,447.990417 358.226562,454.798340 357.912994,461.606293 
M277.270294,429.543213 
	C272.988983,434.496155 273.035126,439.417480 277.395386,442.885132 
	C281.274597,445.970154 286.659546,445.180847 289.563324,440.968811 
	C291.918427,437.552673 291.715912,433.956573 289.128235,430.866333 
	C286.042511,427.181274 282.091583,426.958679 277.270294,429.543213 
M243.881439,429.057648 
	C240.199341,431.730530 238.954071,435.229797 240.728378,439.465424 
	C242.210724,443.004089 245.312927,445.544861 248.859207,444.557007 
	C251.767273,443.746826 255.011017,441.159119 256.296051,438.488495 
	C257.251953,436.501801 256.023895,432.611542 254.496689,430.480682 
	C252.146439,427.201508 248.302261,427.137756 243.881439,429.057648 
M320.516785,428.558990 
	C316.400879,427.191406 312.635071,427.427460 309.894806,431.250427 
	C307.790802,434.185760 307.040588,437.741486 309.553619,440.410583 
	C311.503693,442.481781 314.877197,444.739929 317.300262,444.430115 
	C319.984467,444.086945 323.277130,441.405884 324.555847,438.863281 
	C326.382874,435.230377 324.813171,431.443085 320.516785,428.558990 
M167.063263,443.778625 
	C171.850327,439.959381 172.951767,436.057007 170.424042,431.871368 
	C168.110825,428.040924 163.036774,426.615997 159.138779,428.702148 
	C155.446732,430.678070 153.759720,435.345764 155.269775,439.406982 
	C156.805023,443.535889 161.118057,445.340454 167.063263,443.778625 
z"/>
<path fill="#E8EDFC" opacity="1.000000" stroke="none" 
	d="
M357.949280,256.787598 
	C356.121918,256.857483 354.294586,256.988129 352.467224,256.988403 
	C284.868256,256.998810 217.269272,256.998352 149.670303,256.995789 
	C139.988495,256.995422 137.735611,254.708267 137.727234,244.871948 
	C137.718857,235.048462 137.659698,225.224289 137.754517,215.401703 
	C137.817535,208.873627 140.743820,205.929718 147.255478,205.928925 
	C217.184799,205.920410 287.114136,205.956711 357.525818,206.467407 
	C358.275482,213.826920 358.542725,220.699783 358.546478,227.311249 
	C355.491760,223.273819 351.564301,221.408096 347.540405,223.819412 
	C345.110962,225.275238 342.900360,228.713776 342.495880,231.534515 
	C341.951599,235.330002 344.613953,238.401276 348.552521,239.572418 
	C353.044128,240.908020 356.190155,238.715347 358.812531,235.785095 
	C358.571686,243.125443 358.260468,249.956512 357.949280,256.787598 
M169.578171,225.922729 
	C166.982513,222.982910 163.553864,221.822220 160.219757,223.618240 
	C158.021164,224.802567 155.872482,227.290634 155.109039,229.650345 
	C153.898636,233.391418 155.415543,236.881989 159.101242,238.880753 
	C162.756363,240.862946 166.270157,240.260696 169.096344,237.340195 
	C172.223801,234.108307 172.667938,230.384552 169.578171,225.922729 
M246.114334,223.176300 
	C241.383743,224.921021 239.222290,228.381439 240.198624,233.260269 
	C240.993149,237.230576 243.911591,239.566101 247.924576,239.862534 
	C252.012909,240.164520 254.876358,237.973022 256.391357,234.238037 
	C258.792145,228.319244 254.329330,223.106598 246.114334,223.176300 
M308.781677,228.521942 
	C307.261139,232.284653 308.262665,235.780319 311.425537,237.713364 
	C313.677490,239.089691 317.049042,239.703476 319.639526,239.202454 
	C323.395844,238.475937 325.129242,235.237610 325.104370,231.322739 
	C325.079315,227.380829 323.147430,224.595062 319.485229,223.407959 
	C314.908844,221.924484 311.412445,223.675262 308.781677,228.521942 
M286.242065,238.993774 
	C291.110809,235.482330 292.381012,231.492950 289.993134,227.212585 
	C287.901031,223.462372 283.281921,221.888474 279.258789,223.555008 
	C275.370697,225.165573 273.159607,229.880768 274.445251,233.819977 
	C275.968445,238.487213 279.988159,240.472031 286.242065,238.993774 
z"/>
<path fill="#E7EDFC" opacity="1.000000" stroke="none" 
	d="
M476.879364,282.431396 
	C466.232666,282.542542 455.586151,282.712769 444.939178,282.750763 
	C429.619476,282.805420 414.299255,282.729980 398.979553,282.788757 
	C395.440887,282.802368 393.394135,282.228455 392.777191,277.801575 
	C392.182953,273.537506 389.631165,269.546295 387.674011,264.790253 
	C395.777252,255.788773 393.258575,243.661423 393.884705,231.344498 
	C421.505524,231.344498 448.746521,231.344498 476.544250,231.787064 
	C479.636414,238.852295 480.183868,245.526215 477.373505,252.048431 
	C473.902130,248.376740 470.164978,247.275543 465.941620,249.775345 
	C462.558441,251.777847 460.874298,255.162369 462.250702,258.713806 
	C463.210083,261.189331 465.561920,263.732117 467.949982,264.906799 
	C471.668884,266.736176 474.984344,264.635620 477.968048,261.996796 
	C479.459320,269.108215 479.862610,275.890778 476.879364,282.431396 
z"/>
<path fill="#E8EDFC" opacity="1.000000" stroke="none" 
	d="
M476.943268,350.731873 
	C449.517120,350.731873 422.090973,350.731873 394.800690,350.731873 
	C392.547729,345.062622 390.322327,339.462769 387.742004,332.969849 
	C395.820953,324.242706 393.242371,312.153290 393.863678,299.875885 
	C421.366333,299.875885 448.716919,299.875885 476.581482,300.332275 
	C477.667358,308.043762 478.239288,315.298889 478.558289,322.283630 
	C477.751740,321.185394 477.308746,320.249756 476.625397,319.548279 
	C473.738770,316.584778 470.274261,316.046448 466.601379,317.728821 
	C463.007141,319.375092 461.595795,322.442169 461.981171,326.295532 
	C462.378479,330.267883 464.854919,332.631409 468.518738,333.549835 
	C473.381104,334.768707 476.309265,331.880463 478.755432,328.668427 
	C478.205536,336.366486 477.574402,343.549194 476.943268,350.731873 
z"/>
<path fill="#E8EDFC" opacity="1.000000" stroke="none" 
	d="
M476.972778,418.888794 
	C449.369385,418.888794 421.765991,418.888794 394.673889,418.888794 
	C392.397858,413.039001 390.263580,407.553467 387.756714,401.110382 
	C396.046997,392.414520 393.037750,380.043610 393.948730,368.013672 
	C421.544952,368.013672 448.793243,368.013672 476.569000,368.452423 
	C479.882080,375.789215 479.525970,382.847321 477.980591,389.658569 
	C474.905212,385.500214 471.293213,383.726288 466.622009,385.902435 
	C462.856628,387.656494 460.916077,391.124451 462.213043,394.816071 
	C463.164185,397.523285 465.737854,400.499878 468.332703,401.598816 
	C472.502716,403.364807 475.873871,400.736908 478.438354,397.363525 
	C478.122620,404.750519 477.547699,411.819641 476.972778,418.888794 
z"/>
<path fill="#E8EDFC" opacity="1.000000" stroke="none" 
	d="
M36.928894,231.606827 
	C49.335438,231.483078 61.741753,231.314270 74.148605,231.250397 
	C83.421349,231.202667 92.694794,231.290359 102.465141,231.836609 
	C102.983932,235.686554 103.137924,239.023041 103.002777,242.347748 
	C102.561478,253.203186 105.911217,261.726746 117.367989,265.501587 
	C107.236542,269.854248 104.383018,273.489105 103.844749,282.384766 
	C92.435326,282.511322 81.026154,282.697418 69.616394,282.747009 
	C59.022732,282.793060 48.428440,282.693420 37.311844,282.184845 
	C34.945847,275.157043 33.539845,268.592224 36.616142,262.097900 
	C40.171791,265.609253 43.903538,266.724976 48.109154,264.190979 
	C51.479137,262.160522 52.624630,258.952362 51.934681,255.163330 
	C50.651073,248.114151 42.801060,246.577560 35.974716,251.820435 
	C36.057346,244.917511 36.493122,238.262177 36.928894,231.606827 
z"/>
<path fill="#E8EDFC" opacity="1.000000" stroke="none" 
	d="
M102.951836,350.775665 
	C80.936447,350.818512 58.921062,350.861389 36.449341,350.431366 
	C35.789467,348.522186 35.375977,347.079437 35.419979,345.650757 
	C35.581039,340.421448 35.894405,335.196808 36.448002,330.130737 
	C41.329327,334.425018 44.789143,334.943451 48.686264,332.080231 
	C52.033348,329.621124 53.080379,325.143951 51.182510,321.406097 
	C47.924122,314.988708 40.164665,315.493408 35.228386,321.950195 
	C35.759361,314.305664 36.380627,307.148926 37.001896,299.992188 
	C58.693062,299.947266 80.384224,299.902313 102.544006,300.386536 
	C103.012924,304.059723 103.159416,307.211853 102.986649,310.346375 
	C102.424065,320.553223 104.945030,329.046478 115.281197,333.430939 
	C115.441643,333.498993 115.414139,334.010162 115.507317,334.481201 
	C107.728851,337.096313 104.409012,343.228149 102.951836,350.775665 
z"/>
<path fill="#E8EDFC" opacity="1.000000" stroke="none" 
	d="
M36.975800,368.138397 
	C58.664558,368.094330 80.353317,368.050293 102.521347,368.519104 
	C103.005066,372.023254 103.159744,375.023193 102.986832,378.004120 
	C102.375153,388.549652 104.954330,397.377197 116.626511,402.061890 
	C108.769043,405.697571 103.259300,410.134796 103.960953,418.851013 
	C81.944191,418.908539 59.927425,418.966064 37.400146,418.575287 
	C34.378075,411.513062 34.150272,404.800079 36.311974,398.177185 
	C37.055592,398.848389 37.443485,399.417542 37.962196,399.816650 
	C42.063862,402.972198 46.955463,402.705200 50.035423,399.193268 
	C52.814823,396.024048 52.781307,390.890808 49.960804,387.760437 
	C46.805172,384.258057 41.982693,384.102448 37.905930,387.383636 
	C37.264076,387.900238 36.661297,388.465393 35.735748,388.720978 
	C35.945961,381.668701 36.460880,374.903534 36.975800,368.138397 
z"/>
<path fill="#A4C2F7" opacity="1.000000" stroke="none" 
	d="
M341.945374,495.906403 
	C279.842773,495.906403 217.740189,495.906403 155.266434,495.906403 
	C155.266434,490.241180 155.266434,485.012085 155.266434,478.992584 
	C217.240494,478.992584 279.140656,478.992584 341.522064,479.480408 
	C341.984009,485.280945 341.964691,490.593689 341.945374,495.906403 
z"/>
<path fill="#A4C2F7" opacity="1.000000" stroke="none" 
	d="
M461.971252,452.954773 
	C439.536774,452.954773 417.102325,452.954773 394.273163,452.954773 
	C394.273163,447.348633 394.273163,442.122986 394.273163,436.105774 
	C416.519135,436.105774 438.747986,436.105774 461.467102,436.597595 
	C461.961975,442.377869 461.966614,447.666321 461.971252,452.954773 
z"/>
<path fill="#BDD2FC" opacity="1.000000" stroke="none" 
	d="
M358.326935,393.384888 
	C358.186493,386.606445 358.373871,380.056030 358.317688,372.839233 
	C358.278595,369.452240 358.483063,366.731689 358.687531,364.011108 
	C358.450317,357.096405 358.213135,350.181732 357.913391,342.890106 
	C360.650635,342.375885 363.452301,342.093842 366.249847,342.130127 
	C372.892395,342.216339 376.541656,345.446869 376.709045,352.119202 
	C376.974823,362.715820 376.981049,373.329224 376.704102,383.925262 
	C376.536133,390.353149 373.084290,393.447815 366.583252,393.790619 
	C363.950867,393.929413 361.298218,393.683655 358.326935,393.384888 
z"/>
<path fill="#C2D5FC" opacity="1.000000" stroke="none" 
	d="
M477.617889,252.280411 
	C480.183868,245.526215 479.636414,238.852295 476.990234,231.899353 
	C477.196747,231.471817 477.511536,231.298523 477.831543,231.288284 
	C489.886078,230.902542 497.150513,229.547348 496.074371,247.811050 
	C495.606323,255.754120 496.015045,263.747742 495.989594,271.718262 
	C495.964355,279.619110 492.785950,282.761047 484.752441,282.836182 
	C482.430084,282.857910 480.106567,282.761963 477.331482,282.575684 
	C479.862610,275.890778 479.459320,269.108215 478.070801,261.636169 
	C477.753937,258.093018 477.685913,255.186722 477.617889,252.280411 
z"/>
<path fill="#A4C2F7" opacity="1.000000" stroke="none" 
	d="
M102.999695,453.000000 
	C86.313866,453.022278 69.628036,453.044525 52.494156,452.568878 
	C51.981892,446.784851 51.917675,441.498779 51.853455,436.212677 
	C68.565254,436.173828 85.277054,436.134949 102.482841,436.581238 
	C102.984451,442.377594 102.992073,447.688812 102.999695,453.000000 
z"/>
<path fill="#FEFEFF" opacity="1.000000" stroke="none" 
	d="
M36.492142,231.480194 
	C36.493122,238.262177 36.057346,244.917511 35.841331,252.192444 
	C36.152283,255.851639 36.243477,258.891266 36.334671,261.930878 
	C33.539845,268.592224 34.945847,275.157043 36.857712,282.052734 
	C36.766762,282.439819 36.609241,282.518188 36.447701,282.527588 
	C21.596958,283.392303 17.135725,282.511017 17.967884,265.909027 
	C18.357855,258.128937 18.018141,250.313019 18.039583,242.513412 
	C18.061962,234.373581 20.955944,231.427887 29.088499,231.278275 
	C31.409548,231.235580 33.733025,231.324814 36.492142,231.480194 
z"/>
<path fill="#FEFEFF" opacity="1.000000" stroke="none" 
	d="
M36.519058,368.070435 
	C36.460880,374.903534 35.945961,381.668701 35.670090,389.100403 
	C35.945042,392.510101 35.980946,395.253204 36.016850,397.996338 
	C34.150272,404.800079 34.378075,411.513062 36.934406,418.507690 
	C33.666550,418.944824 30.349949,419.130249 27.042194,419.028381 
	C21.614361,418.861267 18.190758,415.743683 18.106529,410.410309 
	C17.928501,399.137482 17.927418,387.857880 18.109129,376.585144 
	C18.193562,371.347198 21.750706,368.175934 27.109192,367.996063 
	C30.090137,367.896027 33.077724,367.993835 36.519058,368.070435 
z"/>
<path fill="#C9D9FC" opacity="1.000000" stroke="none" 
	d="
M478.811218,322.553986 
	C478.239288,315.298889 477.667358,308.043762 477.045776,300.401306 
	C480.313782,299.966492 483.633789,299.817871 486.948608,299.894257 
	C492.529877,300.022858 495.790436,302.888947 495.893402,308.423126 
	C496.103333,319.708160 496.075256,331.001709 495.900787,342.287964 
	C495.824036,347.252960 492.301544,350.607697 487.325531,350.890625 
	C484.182617,351.069336 481.019928,350.900085 477.404663,350.809387 
	C477.574402,343.549194 478.205536,336.366486 478.781586,328.337036 
	C478.754730,325.844849 478.782990,324.199402 478.811218,322.553986 
z"/>
<path fill="#FEFEFF" opacity="1.000000" stroke="none" 
	d="
M36.542034,299.916260 
	C36.380627,307.148926 35.759361,314.305664 35.186451,322.326233 
	C35.540012,325.450195 35.845211,327.710297 36.150414,329.970428 
	C35.894405,335.196808 35.581039,340.421448 35.419979,345.650757 
	C35.375977,347.079437 35.789467,348.522186 35.981731,350.378540 
	C20.982943,352.055176 17.257839,349.949127 17.972916,334.250488 
	C18.327854,326.458252 18.016352,318.636414 18.039698,310.828064 
	C18.064342,302.585419 20.826809,299.844147 29.105156,299.801880 
	C31.430702,299.790039 33.756493,299.826233 36.542034,299.916260 
z"/>
<path fill="#C9D9FC" opacity="1.000000" stroke="none" 
	d="
M358.368225,461.718689 
	C358.226562,454.798340 358.540100,447.990417 358.836273,440.308594 
	C358.832489,437.107330 358.846100,434.779907 358.859650,432.452515 
	C358.578369,425.586639 358.297150,418.720764 358.006287,411.432800 
	C361.478546,410.961884 364.966644,410.760284 368.440704,410.902161 
	C372.979034,411.087463 376.037262,413.908264 376.100342,418.376526 
	C376.266754,430.159821 376.271667,441.948334 376.116455,453.731842 
	C376.052887,458.558716 372.884521,461.501587 367.781769,461.856201 
	C364.810577,462.062683 361.810516,461.853363 358.368225,461.718689 
z"/>
<path fill="#C9D9FC" opacity="1.000000" stroke="none" 
	d="
M477.434357,418.949280 
	C477.547699,411.819641 478.122620,404.750519 478.492615,397.002502 
	C478.248383,394.201202 478.208984,392.078766 478.169586,389.956360 
	C479.525970,382.847321 479.882080,375.789215 477.031860,368.514771 
	C480.278778,368.089325 483.593903,367.919403 486.900940,368.018951 
	C492.183655,368.177917 495.820709,371.468170 495.902954,376.643463 
	C496.082031,387.908813 496.079498,399.180969 495.901794,410.446381 
	C495.823547,415.406006 492.277130,418.748474 487.339142,418.998352 
	C484.199249,419.157257 481.044189,419.016296 477.434357,418.949280 
z"/>
<path fill="#CAD9FC" opacity="1.000000" stroke="none" 
	d="
M358.410217,256.864990 
	C358.260468,249.956512 358.571686,243.125443 358.863464,235.416138 
	C358.832703,232.216171 358.821350,229.894409 358.809998,227.572647 
	C358.542725,220.699783 358.275482,213.826920 357.987335,206.541702 
	C361.279785,206.067047 364.598694,205.854111 367.905090,205.977539 
	C372.950806,206.165939 376.055237,209.062607 376.123505,214.060745 
	C376.282104,225.670883 376.284882,237.286423 376.114014,248.896271 
	C376.041351,253.835327 372.855835,256.734894 367.827240,256.959717 
	C364.848114,257.092957 361.856934,256.957184 358.410217,256.864990 
z"/>
<path fill="#CAD9FC" opacity="1.000000" stroke="none" 
	d="
M358.434296,324.979309 
	C358.291931,318.087708 358.609467,311.271698 358.903687,303.571472 
	C358.831360,300.374908 358.782349,298.062531 358.733337,295.750153 
	C358.488068,288.854675 358.242767,281.959198 357.968781,274.660828 
	C375.809235,273.001556 376.722656,275.730072 376.250854,291.192871 
	C376.002960,299.316467 376.254578,307.454254 376.187347,315.584839 
	C376.132965,322.161438 373.339478,324.965668 366.858276,325.090027 
	C364.204803,325.140961 361.548950,325.070282 358.434296,324.979309 
z"/>
<path fill="#C2D5FC" opacity="1.000000" stroke="none" 
	d="
M104.302475,282.544800 
	C104.383018,273.489105 107.236542,269.854248 117.367989,265.501587 
	C105.911217,261.726746 102.561478,253.203186 103.002777,242.347748 
	C103.137924,239.023041 102.983932,235.686554 102.914169,231.931641 
	C107.670578,231.391968 112.490578,231.029922 117.269173,231.329132 
	C118.502449,231.406357 120.468628,233.468491 120.608551,234.777985 
	C121.047318,238.884079 120.898605,243.070526 120.749550,247.217636 
	C120.539406,253.064301 122.001167,258.311676 125.249168,263.219940 
	C125.978348,264.321838 125.729637,266.451935 125.261971,267.891327 
	C123.998802,271.779022 121.962135,275.452667 121.035637,279.399780 
	C120.387131,282.162567 119.262268,282.960632 116.712212,282.869904 
	C112.731293,282.728271 108.744499,282.751495 104.302475,282.544800 
z"/>
<path fill="#CAD9FC" opacity="1.000000" stroke="none" 
	d="
M103.418732,350.844360 
	C104.409012,343.228149 107.728851,337.096313 115.507317,334.481201 
	C115.414139,334.010162 115.441643,333.498993 115.281197,333.430939 
	C104.945030,329.046478 102.424065,320.553223 102.986649,310.346375 
	C103.159416,307.211853 103.012924,304.059723 103.010269,300.445099 
	C108.457787,299.974548 113.907669,299.974548 119.912056,299.974548 
	C120.985229,311.653992 117.917709,324.045959 126.039413,332.654205 
	C124.082718,338.500977 122.575546,343.483521 120.680496,348.313904 
	C120.233955,349.452118 118.523338,350.742096 117.320168,350.820099 
	C112.858734,351.109436 108.366371,350.921600 103.418732,350.844360 
z"/>
<path fill="#C9D9FC" opacity="1.000000" stroke="none" 
	d="
M104.426254,418.925110 
	C103.259300,410.134796 108.769043,405.697571 116.626511,402.061890 
	C104.954330,397.377197 102.375153,388.549652 102.986832,378.004120 
	C103.159744,375.023193 103.005066,372.023254 102.985413,368.572601 
	C108.419571,368.113190 113.868935,368.113190 119.871193,368.113190 
	C121.055565,379.665497 117.899483,392.064117 126.124649,400.939514 
	C124.166801,406.506775 122.613487,411.480713 120.602173,416.261993 
	C120.081589,417.499542 118.183403,418.800079 116.818184,418.918243 
	C112.869888,419.259949 108.870743,419.014343 104.426254,418.925110 
z"/>
<path fill="#81ADFA" opacity="1.000000" stroke="none" 
	d="
M462.441559,452.979950 
	C461.966614,447.666321 461.961975,442.377869 461.926941,436.642242 
	C466.372223,436.140045 470.852753,436.192596 475.321808,435.991180 
	C478.177582,435.862457 478.932220,437.052185 479.041595,439.779083 
	C479.576050,453.104980 479.649994,453.102020 462.441559,452.979950 
z"/>
<path fill="#81ADFA" opacity="1.000000" stroke="none" 
	d="
M342.417542,495.940338 
	C341.964691,490.593689 341.984009,485.280945 341.988525,479.505096 
	C346.455414,479.027466 351.047699,478.380188 355.394012,479.139954 
	C362.773865,480.429932 357.798553,486.541931 358.877533,490.319855 
	C359.535614,492.624207 360.209473,496.289886 355.337280,496.033234 
	C351.198517,495.815186 347.039642,495.979248 342.417542,495.940338 
z"/>
<path fill="#82AEFA" opacity="1.000000" stroke="none" 
	d="
M103.467690,453.013733 
	C102.992073,447.688812 102.984451,442.377594 102.944527,436.616333 
	C107.393105,436.121826 111.878349,436.181915 116.353279,435.995026 
	C119.183601,435.876770 119.990288,437.022034 120.105232,439.773346 
	C120.657860,453.001038 120.734306,452.997833 103.467690,453.013733 
z"/>
<path fill="#FAFCFF" opacity="1.000000" stroke="none" 
	d="
M51.397957,436.168762 
	C51.917675,441.498779 51.981892,446.784851 52.026733,452.538483 
	C46.567089,453.006012 41.126827,453.006012 35.375084,453.006012 
	C35.375084,447.469238 35.375084,442.223969 35.375084,436.124817 
	C40.489437,436.124817 45.715950,436.124817 51.397957,436.168762 
z"/>
<path fill="#A4C2F7" opacity="1.000000" stroke="none" 
	d="
M473.993622,178.951523 
	C466.669739,175.094955 459.217987,171.461151 452.043732,167.343887 
	C418.004944,147.809219 384.046051,128.135468 350.050537,108.525398 
	C321.094727,91.822464 292.094452,75.196091 263.201141,58.385860 
	C258.788574,55.818607 255.116730,55.908604 250.707855,58.458942 
	C197.299347,89.353340 143.821945,120.128746 90.338142,150.892838 
	C73.906906,160.344162 57.401733,169.666931 40.489552,178.734772 
	C29.938448,163.300476 36.648567,146.065750 50.290077,139.574966 
	C60.313675,134.805649 69.594528,128.483643 79.245293,122.921089 
	C136.578247,89.875328 193.917175,56.839954 251.282959,23.851265 
	C253.527588,22.560472 256.065369,21.779442 258.747467,21.023043 
	C284.726379,36.201019 310.391052,51.174583 336.129883,66.019592 
	C378.409180,90.404427 420.720917,114.733063 463.057404,139.018509 
	C471.061279,143.609772 476.851624,149.558014 478.636902,159.093231 
	C480.038239,166.577576 476.935089,172.664978 473.993622,178.951523 
z"/>
<path fill="#FAFCFF" opacity="1.000000" stroke="none" 
	d="
M258.466553,20.760881 
	C256.065369,21.779442 253.527588,22.560472 251.282959,23.851265 
	C193.917175,56.839954 136.578247,89.875328 79.245293,122.921089 
	C69.594528,128.483643 60.313675,134.805649 50.290077,139.574966 
	C36.648567,146.065750 29.938448,163.300476 40.140621,178.788818 
	C31.776680,181.627884 23.895369,178.453644 20.011566,171.012512 
	C16.194969,163.700134 17.924215,155.369431 24.393183,149.921188 
	C24.773409,149.600967 25.152782,149.271729 25.569351,149.003906 
	C29.534517,146.454788 32.028683,143.226700 30.303465,138.225586 
	C28.566053,133.189133 24.617018,132.214722 19.475206,132.795792 
	C27.453119,127.864502 35.857277,122.925568 44.652691,118.289429 
	C44.654587,119.503227 43.795635,120.510521 43.959179,121.308167 
	C44.584427,124.357712 44.634598,128.542084 46.610226,130.027618 
	C48.831211,131.697632 53.150269,131.792496 56.100700,130.958923 
	C59.518539,129.993286 60.588718,126.395004 60.182072,122.746010 
	C59.647129,117.945808 56.710045,115.793678 49.684597,115.070473 
	C57.530216,110.378204 65.375832,105.685936 73.587044,100.958923 
	C74.027962,101.072639 74.200455,101.251877 74.164589,101.365112 
	C72.749672,105.831871 72.054947,110.280060 76.446663,113.514236 
	C81.034615,116.892929 85.173424,114.553642 89.352768,112.138359 
	C141.911392,81.764091 194.463699,51.378235 247.161163,21.246361 
	C250.650543,19.251163 255.302551,19.289267 259.359741,18.780176 
	C259.025970,19.706118 258.746277,20.233500 258.466553,20.760881 
z"/>
<path fill="#7EACFA" opacity="1.000000" stroke="none" 
	d="
M258.747467,21.023043 
	C258.746277,20.233500 259.025970,19.706118 259.592346,19.086737 
	C262.079956,19.594791 264.531403,19.759476 266.444183,20.860220 
	C295.090302,37.345039 323.644623,53.989170 352.263397,70.521660 
	C377.145935,84.895790 402.086761,99.169037 426.993683,113.501015 
	C446.861084,124.933136 466.718384,136.382797 486.575775,147.832306 
	C494.552673,152.431686 497.809753,160.484848 494.987396,168.567963 
	C492.059326,176.953857 484.491547,181.016983 474.273499,179.245239 
	C476.935089,172.664978 480.038239,166.577576 478.636902,159.093231 
	C476.851624,149.558014 471.061279,143.609772 463.057404,139.018509 
	C420.720917,114.733063 378.409180,90.404427 336.129883,66.019592 
	C310.391052,51.174583 284.726379,36.201019 258.747467,21.023043 
z"/>
<path fill="#FAFCFF" opacity="1.000000" stroke="none" 
	d="
M74.249847,101.110321 
	C74.197052,100.650002 74.469322,100.346626 75.074524,100.082985 
	C75.129951,100.504234 74.852432,100.885757 74.249847,101.110321 
z"/>
<path fill="#4790FF" opacity="1.000000" stroke="none" 
	d="
M49.362915,115.028381 
	C56.710045,115.793678 59.647129,117.945808 60.182072,122.746010 
	C60.588718,126.395004 59.518539,129.993286 56.100700,130.958923 
	C53.150269,131.792496 48.831211,131.697632 46.610226,130.027618 
	C44.634598,128.542084 44.584427,124.357712 43.959179,121.308167 
	C43.795635,120.510521 44.654587,119.503227 45.020596,118.213501 
	C46.345242,116.885292 47.693233,115.935783 49.362915,115.028381 
z"/>
<path fill="#468FFF" opacity="1.000000" stroke="none" 
	d="
M358.454041,363.701172 
	C358.483063,366.731689 358.278595,369.452240 357.995239,372.561432 
	C353.015320,377.140625 348.860046,377.559265 345.160187,374.235199 
	C341.939148,371.341461 341.438843,366.657196 343.963654,363.033142 
	C347.445953,358.034698 353.064270,358.175812 358.454041,363.701172 
z"/>
<path fill="#468FFF" opacity="1.000000" stroke="none" 
	d="
M163.748291,359.339722 
	C168.518814,360.331207 171.753433,363.119659 171.469620,367.449646 
	C171.287247,370.232025 169.100128,373.895935 166.726608,375.220581 
	C164.596161,376.409607 160.103500,375.964294 158.260666,374.375336 
	C156.218185,372.614288 155.002487,368.661407 155.221497,365.800323 
	C155.547195,361.545288 159.175812,359.641846 163.748291,359.339722 
z"/>
<path fill="#468FFF" opacity="1.000000" stroke="none" 
	d="
M322.793793,373.815308 
	C319.188599,376.944061 315.136597,377.431366 312.110413,374.736176 
	C310.002808,372.859070 308.166473,368.915771 308.661438,366.372894 
	C309.157532,363.824463 312.415710,360.578918 314.983185,360.017731 
	C317.520966,359.463074 321.445190,361.154633 323.437653,363.169617 
	C326.373627,366.138824 325.781372,370.148529 322.793793,373.815308 
z"/>
<path fill="#4790FF" opacity="1.000000" stroke="none" 
	d="
M252.048920,375.567993 
	C247.278534,376.874359 243.389343,376.322906 241.027649,371.936676 
	C239.077469,368.314728 239.691299,364.874969 242.524796,361.936096 
	C245.961639,358.371460 251.536957,358.595490 254.818863,362.330566 
	C258.457703,366.471863 257.534485,371.463715 252.048920,375.567993 
z"/>
<path fill="#4790FF" opacity="1.000000" stroke="none" 
	d="
M284.342834,359.663269 
	C289.346649,361.195709 291.504425,364.467407 290.922363,369.154694 
	C290.456573,372.906158 288.198822,375.492950 284.239624,376.121185 
	C278.923737,376.964691 274.410553,373.560059 274.065613,368.507355 
	C273.703583,363.204590 277.661865,359.632233 284.342834,359.663269 
z"/>
<path fill="#4790FF" opacity="1.000000" stroke="none" 
	d="
M244.987183,307.399780 
	C240.527496,305.013000 238.670547,301.155090 240.516052,297.275879 
	C241.779587,294.619995 245.214706,292.093567 248.143478,291.357635 
	C251.983261,290.392792 255.019272,293.180298 256.457184,296.946106 
	C259.003998,303.616089 253.487915,308.852203 244.987183,307.399780 
z"/>
<path fill="#4790FF" opacity="1.000000" stroke="none" 
	d="
M358.486420,295.464203 
	C358.782349,298.062531 358.831360,300.374908 358.849670,303.071899 
	C354.407928,308.357330 349.998840,309.842468 346.487305,306.681427 
	C344.418396,304.819031 342.310486,301.291107 342.677795,298.887848 
	C343.085602,296.219177 345.830414,293.113190 348.385620,291.754150 
	C352.176086,289.738068 355.676117,291.889282 358.486420,295.464203 
z"/>
<path fill="#468FFF" opacity="1.000000" stroke="none" 
	d="
M156.314423,294.584778 
	C161.628754,290.028503 166.540176,290.122650 169.891098,294.514343 
	C172.881866,298.434052 172.031433,303.887299 167.830505,306.672668 
	C164.402130,308.945801 160.824539,308.715759 157.727844,306.118805 
	C153.986862,302.981506 154.016525,299.032898 156.314423,294.584778 
z"/>
<path fill="#4790FF" opacity="1.000000" stroke="none" 
	d="
M286.581177,292.205627 
	C290.739166,294.919525 292.026733,298.470642 290.478149,302.708496 
	C289.072083,306.556366 286.003571,308.291779 281.887451,308.051727 
	C277.872955,307.817688 275.040497,305.466766 274.590698,301.814758 
	C274.271179,299.220520 275.252686,295.909424 276.819061,293.772827 
	C279.048676,290.731659 282.653046,290.274780 286.581177,292.205627 
z"/>
<path fill="#4790FF" opacity="1.000000" stroke="none" 
	d="
M314.644592,291.381104 
	C321.865509,291.243622 325.566437,294.633270 325.078339,300.473297 
	C324.663940,305.431641 320.383118,308.787537 315.333801,307.983765 
	C311.207123,307.326843 308.817871,304.587219 308.289795,300.678070 
	C307.678497,296.153046 310.133301,293.166626 314.644592,291.381104 
z"/>
<path fill="#4790FF" opacity="1.000000" stroke="none" 
	d="
M277.596680,429.319458 
	C282.091583,426.958679 286.042511,427.181274 289.128235,430.866333 
	C291.715912,433.956573 291.918427,437.552673 289.563324,440.968811 
	C286.659546,445.180847 281.274597,445.970154 277.395386,442.885132 
	C273.035126,439.417480 272.988983,434.496155 277.596680,429.319458 
z"/>
<path fill="#468FFF" opacity="1.000000" stroke="none" 
	d="
M358.588013,432.205505 
	C358.846100,434.779907 358.832489,437.107330 358.753357,439.793030 
	C353.480347,445.976349 347.294006,446.285980 343.762329,440.898346 
	C341.259674,437.080505 342.125671,432.189209 345.791199,429.438660 
	C349.693176,426.510681 354.138275,427.404938 358.588013,432.205505 
z"/>
<path fill="#4790FF" opacity="1.000000" stroke="none" 
	d="
M244.239319,428.875549 
	C248.302261,427.137756 252.146439,427.201508 254.496689,430.480682 
	C256.023895,432.611542 257.251953,436.501801 256.296051,438.488495 
	C255.011017,441.159119 251.767273,443.746826 248.859207,444.557007 
	C245.312927,445.544861 242.210724,443.004089 240.728378,439.465424 
	C238.954071,435.229797 240.199341,431.730530 244.239319,428.875549 
z"/>
<path fill="#4790FF" opacity="1.000000" stroke="none" 
	d="
M320.865417,428.761108 
	C324.813171,431.443085 326.382874,435.230377 324.555847,438.863281 
	C323.277130,441.405884 319.984467,444.086945 317.300262,444.430115 
	C314.877197,444.739929 311.503693,442.481781 309.553619,440.410583 
	C307.040588,437.741486 307.790802,434.185760 309.894806,431.250427 
	C312.635071,427.427460 316.400879,427.191406 320.865417,428.761108 
z"/>
<path fill="#4790FF" opacity="1.000000" stroke="none" 
	d="
M166.704498,443.909882 
	C161.118057,445.340454 156.805023,443.535889 155.269775,439.406982 
	C153.759720,435.345764 155.446732,430.678070 159.138779,428.702148 
	C163.036774,426.615997 168.110825,428.040924 170.424042,431.871368 
	C172.951767,436.057007 171.850327,439.959381 166.704498,443.909882 
z"/>
<path fill="#4790FF" opacity="1.000000" stroke="none" 
	d="
M358.546448,227.311249 
	C358.821350,229.894409 358.832703,232.216171 358.793091,234.906876 
	C356.190155,238.715347 353.044128,240.908020 348.552521,239.572418 
	C344.613953,238.401276 341.951599,235.330002 342.495880,231.534515 
	C342.900360,228.713776 345.110962,225.275238 347.540405,223.819412 
	C351.564301,221.408096 355.491760,223.273819 358.546448,227.311249 
z"/>
<path fill="#4790FF" opacity="1.000000" stroke="none" 
	d="
M169.816467,226.219925 
	C172.667938,230.384552 172.223801,234.108307 169.096344,237.340195 
	C166.270157,240.260696 162.756363,240.862946 159.101242,238.880753 
	C155.415543,236.881989 153.898636,233.391418 155.109039,229.650345 
	C155.872482,227.290634 158.021164,224.802567 160.219757,223.618240 
	C163.553864,221.822220 166.982513,222.982910 169.816467,226.219925 
z"/>
<path fill="#468FFF" opacity="1.000000" stroke="none" 
	d="
M246.509277,223.109467 
	C254.329330,223.106598 258.792145,228.319244 256.391357,234.238037 
	C254.876358,237.973022 252.012909,240.164520 247.924576,239.862534 
	C243.911591,239.566101 240.993149,237.230576 240.198624,233.260269 
	C239.222290,228.381439 241.383743,224.921021 246.509277,223.109467 
z"/>
<path fill="#4790FF" opacity="1.000000" stroke="none" 
	d="
M308.920135,228.163330 
	C311.412445,223.675262 314.908844,221.924484 319.485229,223.407959 
	C323.147430,224.595062 325.079315,227.380829 325.104370,231.322739 
	C325.129242,235.237610 323.395844,238.475937 319.639526,239.202454 
	C317.049042,239.703476 313.677490,239.089691 311.425537,237.713364 
	C308.262665,235.780319 307.261139,232.284653 308.920135,228.163330 
z"/>
<path fill="#4790FF" opacity="1.000000" stroke="none" 
	d="
M285.886353,239.143677 
	C279.988159,240.472031 275.968445,238.487213 274.445251,233.819977 
	C273.159607,229.880768 275.370697,225.165573 279.258789,223.555008 
	C283.281921,221.888474 287.901031,223.462372 289.993134,227.212585 
	C292.381012,231.492950 291.110809,235.482330 285.886353,239.143677 
z"/>
<path fill="#468FFF" opacity="1.000000" stroke="none" 
	d="
M477.373505,252.048431 
	C477.685913,255.186722 477.753937,258.093018 477.719208,261.359924 
	C474.984344,264.635620 471.668884,266.736176 467.949982,264.906799 
	C465.561920,263.732117 463.210083,261.189331 462.250702,258.713806 
	C460.874298,255.162369 462.558441,251.777847 465.941620,249.775345 
	C470.164978,247.275543 473.902130,248.376740 477.373505,252.048431 
z"/>
<path fill="#468FFF" opacity="1.000000" stroke="none" 
	d="
M478.558289,322.283630 
	C478.782990,324.199402 478.754730,325.844849 478.700378,327.821655 
	C476.309265,331.880463 473.381104,334.768707 468.518738,333.549835 
	C464.854919,332.631409 462.378479,330.267883 461.981171,326.295532 
	C461.595795,322.442169 463.007141,319.375092 466.601379,317.728821 
	C470.274261,316.046448 473.738770,316.584778 476.625397,319.548279 
	C477.308746,320.249756 477.751740,321.185394 478.558289,322.283630 
z"/>
<path fill="#4790FF" opacity="1.000000" stroke="none" 
	d="
M477.980591,389.658569 
	C478.208984,392.078766 478.248383,394.201202 478.233490,396.684631 
	C475.873871,400.736908 472.502716,403.364807 468.332703,401.598816 
	C465.737854,400.499878 463.164185,397.523285 462.213043,394.816071 
	C460.916077,391.124451 462.856628,387.656494 466.622009,385.902435 
	C471.293213,383.726288 474.905212,385.500214 477.980591,389.658569 
z"/>
<path fill="#468FFF" opacity="1.000000" stroke="none" 
	d="
M36.616142,262.097900 
	C36.243477,258.891266 36.152283,255.851639 36.194473,252.440018 
	C42.801060,246.577560 50.651073,248.114151 51.934681,255.163330 
	C52.624630,258.952362 51.479137,262.160522 48.109154,264.190979 
	C43.903538,266.724976 40.171791,265.609253 36.616142,262.097900 
z"/>
<path fill="#4790FF" opacity="1.000000" stroke="none" 
	d="
M36.448002,330.130737 
	C35.845211,327.710297 35.540012,325.450195 35.276749,322.814026 
	C40.164665,315.493408 47.924122,314.988708 51.182510,321.406097 
	C53.080379,325.143951 52.033348,329.621124 48.686264,332.080231 
	C44.789143,334.943451 41.329327,334.425018 36.448002,330.130737 
z"/>
<path fill="#4790FF" opacity="1.000000" stroke="none" 
	d="
M36.311974,398.177185 
	C35.980946,395.253204 35.945042,392.510101 35.974796,389.387543 
	C36.661297,388.465393 37.264076,387.900238 37.905930,387.383636 
	C41.982693,384.102448 46.805172,384.258057 49.960804,387.760437 
	C52.781307,390.890808 52.814823,396.024048 50.035423,399.193268 
	C46.955463,402.705200 42.063862,402.972198 37.962196,399.816650 
	C37.443485,399.417542 37.055592,398.848389 36.311974,398.177185 
z"/>
</svg>